<?xml version="1.0" encoding="iso-8859-1"?>
<!-- Generator: Adobe Illustrator 22.1.0, SVG Export Plug-In . SVG Version: 6.00 Build 0)  -->
<svg version="1.1" id="Nuestras_tiendas" xmlns="http://www.w3.org/2000/svg" xmlns:xlink="http://www.w3.org/1999/xlink" x="0px"
	 y="0px" viewBox="0 0 222.223 134.189" style="enable-background:new 0 0 222.223 134.189;" xml:space="preserve">
<g>
	
		<polyline style="fill:none;stroke:#333333;stroke-width:2.5;stroke-linecap:round;stroke-linejoin:round;stroke-miterlimit:10;" points="
		-96.147,41.678 -114.236,41.678 -114.236,32.745 -91.978,32.745 	"/>
	
		<polyline style="fill:none;stroke:#333333;stroke-width:2.5;stroke-linecap:round;stroke-linejoin:round;stroke-miterlimit:10;" points="
		-63.373,32.745 -44.509,32.745 -44.509,41.678 -64.904,41.678 	"/>
	
		<polyline style="fill:none;stroke:#333333;stroke-width:2.5;stroke-linecap:round;stroke-linejoin:round;stroke-miterlimit:10;" points="
		-94.059,49.015 -105.312,49.015 -105.312,41.678 -96.147,41.678 	"/>
	
		<polyline style="fill:none;stroke:#333333;stroke-width:2.5;stroke-linecap:round;stroke-linejoin:round;stroke-miterlimit:10;" points="
		-64.904,41.678 -53.624,41.678 -53.624,49.015 -66.329,49.015 	"/>
	
		<polyline style="fill:none;stroke:#333333;stroke-width:2.5;stroke-linecap:round;stroke-linejoin:round;stroke-miterlimit:10;" points="
		-94.059,49.015 -114.236,49.015 -114.236,103.884 -98.056,103.884 	"/>
	
		<polyline style="fill:none;stroke:#333333;stroke-width:2.5;stroke-linecap:round;stroke-linejoin:round;stroke-miterlimit:10;" points="
		-98.803,103.884 -44.509,103.884 -44.509,49.015 -66.329,49.015 	"/>
	
		<line style="fill:none;stroke:#333333;stroke-width:2.5;stroke-linecap:round;stroke-linejoin:round;stroke-miterlimit:10;" x1="-97.503" y1="62.63" x2="-61.242" y2="62.63"/>
	<path style="fill:none;stroke:#B8B8B8;stroke-width:2.5;stroke-linecap:round;stroke-linejoin:round;stroke-miterlimit:10;" d="
		M-53.624,103.884"/>
	
		<line style="fill:none;stroke:#333333;stroke-width:2.5;stroke-linecap:round;stroke-linejoin:round;stroke-miterlimit:10;" x1="-135.85" y1="103.884" x2="-22.895" y2="103.884"/>
	<path style="fill:#F5F5F5;stroke:#333333;stroke-width:2.5;stroke-linecap:round;stroke-linejoin:round;stroke-miterlimit:10;" d="
		M-63.24,33.91c0,2.903-2.357,5.261-5.261,5.261c-2.906,0-5.262-2.358-5.262-5.261c0-2.909,2.356-5.264,5.262-5.264
		C-65.596,28.646-63.24,31.001-63.24,33.91z"/>
	<path style="fill:none;stroke:#333333;stroke-width:2.5;stroke-linecap:round;stroke-linejoin:round;stroke-miterlimit:10;" d="
		M-66.324,49.017c-2.447,5.206-7.738,8.813-13.87,8.813c-8.456,0-15.312-6.856-15.312-15.313c0-8.456,6.856-15.313,15.312-15.313
		c3.131,0,6.041,0.94,8.467,2.552"/>
	<path style="fill:none;stroke:#333333;stroke-width:2.5;stroke-linecap:round;stroke-linejoin:round;stroke-miterlimit:10;" d="
		M-65.495,38.217c0.399,1.364,0.614,2.807,0.614,4.3c0,2.325-0.517,4.526-1.443,6.5"/>
	
		<rect x="-97.335" y="67.866" style="fill:none;stroke:#333333;stroke-width:2.5;stroke-linecap:round;stroke-linejoin:round;stroke-miterlimit:10;" width="35.925" height="36.017"/>
	<g>
		
			<line style="fill:none;stroke:#333333;stroke-width:2.5;stroke-linecap:round;stroke-linejoin:round;stroke-miterlimit:10;" x1="-73.662" y1="83.33" x2="-73.662" y2="89.284"/>
		
			<line style="fill:none;stroke:#333333;stroke-width:2.5;stroke-linecap:round;stroke-linejoin:round;stroke-miterlimit:10;" x1="-85.084" y1="83.33" x2="-85.084" y2="89.284"/>
	</g>
	<g>
		
			<line style="fill:none;stroke:#333333;stroke-width:0.9145;stroke-linecap:round;stroke-linejoin:round;stroke-miterlimit:10;" x1="-72.074" y1="95.504" x2="-66.224" y2="89.654"/>
		
			<line style="fill:none;stroke:#333333;stroke-width:0.9145;stroke-linecap:round;stroke-linejoin:round;stroke-miterlimit:10;" x1="-71.551" y1="99.099" x2="-67.091" y2="94.637"/>
	</g>
	<g>
		
			<line style="fill:none;stroke:#333333;stroke-width:0.9145;stroke-linecap:round;stroke-linejoin:round;stroke-miterlimit:10;" x1="-92.777" y1="79.013" x2="-86.928" y2="73.163"/>
		
			<line style="fill:none;stroke:#333333;stroke-width:0.9145;stroke-linecap:round;stroke-linejoin:round;stroke-miterlimit:10;" x1="-92.255" y1="82.609" x2="-87.794" y2="78.147"/>
	</g>
	
		<line style="fill:none;stroke:#333333;stroke-width:2.5;stroke-linecap:round;stroke-linejoin:round;stroke-miterlimit:10;" x1="-79.373" y1="67.866" x2="-79.373" y2="103.884"/>
</g>
<circle style="fill:none;stroke:#333333;stroke-width:4;stroke-linecap:round;stroke-linejoin:round;stroke-miterlimit:10;" cx="-79.373" cy="68.904" r="72.722"/>
<path style="fill:#A81916;" d="M111.112,131.162c-35.217,0-63.869-28.651-63.869-63.869S75.894,3.425,111.112,3.425
	s63.868,28.651,63.868,63.868S146.329,131.162,111.112,131.162z M111.112,6.844c-33.333,0-60.45,27.117-60.45,60.449
	c0,33.333,27.117,60.45,60.45,60.45c33.332,0,60.449-27.117,60.449-60.45C171.561,33.961,144.443,6.844,111.112,6.844z"/>
<g>
	<path style="fill:#A81916;" d="M78.516,92.594h-11.16c-0.69,0-1.25-0.56-1.25-1.25s0.56-1.25,1.25-1.25h11.16
		c0.69,0,1.25,0.56,1.25,1.25S79.206,92.594,78.516,92.594z"/>
	<g>
		<path style="fill:#A81916;" d="M66.36,58.573H56.74c-0.69,0-1.25-0.56-1.25-1.25s0.56-1.25,1.25-1.25h9.621
			c0.69,0,1.25,0.56,1.25,1.25S67.051,58.573,66.36,58.573z"/>
		<path style="fill:#A81916;" d="M86.57,66.418h-7.596c-0.69,0-1.25-0.56-1.25-1.25s0.56-1.25,1.25-1.25h7.596
			c0.69,0,1.25,0.56,1.25,1.25S87.261,66.418,86.57,66.418z"/>
		<path style="fill:#A81916;" d="M77.664,58.573h-5.579c-0.69,0-1.25-0.56-1.25-1.25s0.56-1.25,1.25-1.25h5.579
			c0.69,0,1.25,0.56,1.25,1.25S78.354,58.573,77.664,58.573z"/>
		<path style="fill:#A81916;" d="M66.36,74.041H56.74c-0.69,0-1.25-0.56-1.25-1.25s0.56-1.25,1.25-1.25h9.621
			c0.69,0,1.25,0.56,1.25,1.25S67.051,74.041,66.36,74.041z"/>
		<path style="fill:#A81916;" d="M77.664,74.041h-5.579c-0.69,0-1.25-0.56-1.25-1.25s0.56-1.25,1.25-1.25h5.579
			c0.69,0,1.25,0.56,1.25,1.25S78.354,74.041,77.664,74.041z"/>
		<path style="fill:#A81916;" d="M74.212,66.418h-5.58c-0.69,0-1.25-0.56-1.25-1.25s0.56-1.25,1.25-1.25h5.58
			c0.69,0,1.25,0.56,1.25,1.25S74.902,66.418,74.212,66.418z"/>
		<path style="fill:#A81916;" d="M63.833,66.418h-2.542c-0.69,0-1.25-0.56-1.25-1.25s0.56-1.25,1.25-1.25h2.542
			c0.69,0,1.25,0.56,1.25,1.25S64.523,66.418,63.833,66.418z"/>
	</g>
	<g>
		<path style="fill:#A81916;" d="M139.876,72.829h-11.428c-0.69,0-1.25-0.56-1.25-1.25V59.344c0-0.69,0.56-1.25,1.25-1.25h11.428
			c0.69,0,1.25,0.56,1.25,1.25v12.235C141.126,72.27,140.566,72.829,139.876,72.829z M129.698,70.329h8.928v-9.735h-8.928V70.329z"
			/>
		<path style="fill:#A81916;" d="M123.022,92.594h-13.227c-0.359,0-0.702-0.155-0.939-0.426s-0.347-0.63-0.3-0.986
			c0.072-0.551,0.105-1.012,0.105-1.451c0-6.206-5.049-11.254-11.254-11.254c-6.206,0-11.255,5.048-11.255,11.254
			c0,0.435,0.033,0.896,0.104,1.455c0.045,0.356-0.064,0.715-0.302,0.984s-0.579,0.424-0.938,0.424H71.794
			c-0.69,0-1.25-0.56-1.25-1.25V79.483c0-0.69,0.56-1.25,1.25-1.25s1.25,0.56,1.25,1.25v10.611h10.615
			c-0.004-0.123-0.006-0.243-0.006-0.363c0-7.584,6.171-13.754,13.755-13.754s13.754,6.17,13.754,13.754
			c0,0.12-0.002,0.241-0.006,0.363h10.616V42.577H73.044v8.049c0,0.69-0.56,1.25-1.25,1.25s-1.25-0.56-1.25-1.25v-9.299
			c0-0.69,0.56-1.25,1.25-1.25h51.229c0.69,0,1.25,0.56,1.25,1.25v50.017C124.272,92.034,123.713,92.594,123.022,92.594z"/>
		<g>
			<path style="fill:#A81916;" d="M160.701,89.731c0,4.145-3.361,7.505-7.505,7.505c-4.145,0-7.507-3.359-7.507-7.505
				c0-4.145,3.361-7.504,7.507-7.504C157.34,82.227,160.701,85.586,160.701,89.731z"/>
			<path style="fill:#A81916;" d="M153.196,98.485c-4.828,0-8.757-3.928-8.757-8.755s3.929-8.754,8.757-8.754
				c4.827,0,8.755,3.927,8.755,8.754S158.023,98.485,153.196,98.485z M153.196,83.477c-3.45,0-6.257,2.806-6.257,6.254
				c0,3.449,2.807,6.255,6.257,6.255c3.449,0,6.255-2.806,6.255-6.255C159.451,86.282,156.646,83.477,153.196,83.477z"/>
		</g>
		<path style="fill:#A81916;" d="M140.276,92.594h-17.254c-0.69,0-1.25-0.56-1.25-1.25V54.235c0-0.69,0.56-1.25,1.25-1.25h21.78
			c0.69,0,1.25,0.56,1.25,1.25l0.002,16.094h11.448c0.69,0,1.25,0.56,1.25,1.25v6.62c0,0.419-0.21,0.81-0.559,1.042
			c-0.35,0.231-0.79,0.273-1.177,0.11c-1.377-0.58-2.842-0.875-4.354-0.875c-6.205,0-11.254,5.048-11.254,11.254
			c0,0.442,0.034,0.902,0.106,1.448c0.047,0.357-0.062,0.718-0.299,0.988C140.98,92.439,140.637,92.594,140.276,92.594z
			 M124.272,90.094h14.643c-0.004-0.123-0.006-0.244-0.006-0.363c0-7.584,6.17-13.754,13.754-13.754c1.227,0,2.428,0.159,3.59,0.473
			v-3.621h-11.448c-0.69,0-1.25-0.56-1.25-1.25l-0.002-16.094h-19.28V90.094z"/>
		<path style="fill:#A81916;" d="M140.159,90.98c-0.69,0-1.25-0.56-1.25-1.25c0-7.584,6.17-13.754,13.754-13.754
			c4.445,0,8.639,2.165,11.217,5.791c0.4,0.563,0.269,1.343-0.294,1.743c-0.562,0.4-1.343,0.269-1.743-0.294
			c-2.11-2.968-5.542-4.74-9.18-4.74c-6.205,0-11.254,5.048-11.254,11.254C141.409,90.421,140.85,90.98,140.159,90.98z"/>
	</g>
	<g>
		<path style="fill:#A81916;" d="M104.898,89.731c0,4.145-3.36,7.505-7.505,7.505c-4.145,0-7.506-3.359-7.506-7.505
			c0-4.145,3.361-7.504,7.506-7.504C101.538,82.227,104.898,85.586,104.898,89.731z"/>
		<path style="fill:#A81916;" d="M97.393,98.485c-4.828,0-8.756-3.928-8.756-8.755s3.928-8.754,8.756-8.754s8.756,3.927,8.756,8.754
			S102.221,98.485,97.393,98.485z M97.393,83.477c-3.449,0-6.256,2.806-6.256,6.254c0,3.449,2.807,6.255,6.256,6.255
			s6.256-2.806,6.256-6.255C103.648,86.282,100.842,83.477,97.393,83.477z"/>
	</g>
</g>
</svg>
