<?xml version="1.0" encoding="iso-8859-1"?>
<!-- Generator: Adobe Illustrator 22.1.0, SVG Export Plug-In . SVG Version: 6.00 Build 0)  -->
<svg version="1.1" id="Nuestras_tiendas" xmlns="http://www.w3.org/2000/svg" xmlns:xlink="http://www.w3.org/1999/xlink" x="0px"
	 y="0px" viewBox="0 0 222.223 134.189" style="enable-background:new 0 0 222.223 134.189;" xml:space="preserve">
<g>
	
		<polyline style="fill:none;stroke:#333333;stroke-width:2.5;stroke-linecap:round;stroke-linejoin:round;stroke-miterlimit:10;" points="
		-96.147,41.678 -114.236,41.678 -114.236,32.745 -91.978,32.745 	"/>
	
		<polyline style="fill:none;stroke:#333333;stroke-width:2.5;stroke-linecap:round;stroke-linejoin:round;stroke-miterlimit:10;" points="
		-63.373,32.745 -44.509,32.745 -44.509,41.678 -64.904,41.678 	"/>
	
		<polyline style="fill:none;stroke:#333333;stroke-width:2.5;stroke-linecap:round;stroke-linejoin:round;stroke-miterlimit:10;" points="
		-94.059,49.015 -105.312,49.015 -105.312,41.678 -96.147,41.678 	"/>
	
		<polyline style="fill:none;stroke:#333333;stroke-width:2.5;stroke-linecap:round;stroke-linejoin:round;stroke-miterlimit:10;" points="
		-64.904,41.678 -53.624,41.678 -53.624,49.015 -66.329,49.015 	"/>
	
		<polyline style="fill:none;stroke:#333333;stroke-width:2.5;stroke-linecap:round;stroke-linejoin:round;stroke-miterlimit:10;" points="
		-94.059,49.015 -114.236,49.015 -114.236,103.884 -98.056,103.884 	"/>
	
		<polyline style="fill:none;stroke:#333333;stroke-width:2.5;stroke-linecap:round;stroke-linejoin:round;stroke-miterlimit:10;" points="
		-98.803,103.884 -44.509,103.884 -44.509,49.015 -66.329,49.015 	"/>
	
		<line style="fill:none;stroke:#333333;stroke-width:2.5;stroke-linecap:round;stroke-linejoin:round;stroke-miterlimit:10;" x1="-97.503" y1="62.63" x2="-61.242" y2="62.63"/>
	<path style="fill:none;stroke:#B8B8B8;stroke-width:2.5;stroke-linecap:round;stroke-linejoin:round;stroke-miterlimit:10;" d="
		M-53.624,103.884"/>
	
		<line style="fill:none;stroke:#333333;stroke-width:2.5;stroke-linecap:round;stroke-linejoin:round;stroke-miterlimit:10;" x1="-135.85" y1="103.884" x2="-22.895" y2="103.884"/>
	<path style="fill:#F5F5F5;stroke:#333333;stroke-width:2.5;stroke-linecap:round;stroke-linejoin:round;stroke-miterlimit:10;" d="
		M-63.24,33.91c0,2.903-2.357,5.261-5.261,5.261c-2.906,0-5.262-2.358-5.262-5.261c0-2.909,2.356-5.264,5.262-5.264
		C-65.596,28.646-63.24,31.001-63.24,33.91z"/>
	<path style="fill:none;stroke:#333333;stroke-width:2.5;stroke-linecap:round;stroke-linejoin:round;stroke-miterlimit:10;" d="
		M-66.324,49.017c-2.447,5.206-7.738,8.813-13.87,8.813c-8.456,0-15.312-6.856-15.312-15.313c0-8.456,6.856-15.313,15.312-15.313
		c3.131,0,6.041,0.94,8.467,2.552"/>
	<path style="fill:none;stroke:#333333;stroke-width:2.5;stroke-linecap:round;stroke-linejoin:round;stroke-miterlimit:10;" d="
		M-65.495,38.217c0.399,1.364,0.614,2.807,0.614,4.3c0,2.325-0.517,4.526-1.443,6.5"/>
	
		<rect x="-97.335" y="67.866" style="fill:none;stroke:#333333;stroke-width:2.5;stroke-linecap:round;stroke-linejoin:round;stroke-miterlimit:10;" width="35.925" height="36.017"/>
	<g>
		
			<line style="fill:none;stroke:#333333;stroke-width:2.5;stroke-linecap:round;stroke-linejoin:round;stroke-miterlimit:10;" x1="-73.662" y1="83.33" x2="-73.662" y2="89.284"/>
		
			<line style="fill:none;stroke:#333333;stroke-width:2.5;stroke-linecap:round;stroke-linejoin:round;stroke-miterlimit:10;" x1="-85.084" y1="83.33" x2="-85.084" y2="89.284"/>
	</g>
	<g>
		
			<line style="fill:none;stroke:#333333;stroke-width:0.9145;stroke-linecap:round;stroke-linejoin:round;stroke-miterlimit:10;" x1="-72.074" y1="95.504" x2="-66.224" y2="89.654"/>
		
			<line style="fill:none;stroke:#333333;stroke-width:0.9145;stroke-linecap:round;stroke-linejoin:round;stroke-miterlimit:10;" x1="-71.551" y1="99.099" x2="-67.091" y2="94.637"/>
	</g>
	<g>
		
			<line style="fill:none;stroke:#333333;stroke-width:0.9145;stroke-linecap:round;stroke-linejoin:round;stroke-miterlimit:10;" x1="-92.777" y1="79.013" x2="-86.928" y2="73.163"/>
		
			<line style="fill:none;stroke:#333333;stroke-width:0.9145;stroke-linecap:round;stroke-linejoin:round;stroke-miterlimit:10;" x1="-92.255" y1="82.609" x2="-87.794" y2="78.147"/>
	</g>
	
		<line style="fill:none;stroke:#333333;stroke-width:2.5;stroke-linecap:round;stroke-linejoin:round;stroke-miterlimit:10;" x1="-79.373" y1="67.866" x2="-79.373" y2="103.884"/>
</g>
<circle style="fill:none;stroke:#333333;stroke-width:4;stroke-linecap:round;stroke-linejoin:round;stroke-miterlimit:10;" cx="-79.373" cy="68.904" r="72.722"/>
<g>
	<path style="fill:#A81916;" d="M96.773,45.09H81.313c-0.59,0-1.068-0.478-1.068-1.068v-7.634c0-0.59,0.478-1.068,1.068-1.068
		h19.025c0.59,0,1.068,0.478,1.068,1.068s-0.478,1.068-1.068,1.068H82.381v5.497h14.392c0.59,0,1.068,0.478,1.068,1.068
		S97.363,45.09,96.773,45.09z"/>
	<path style="fill:#A81916;" d="M140.91,45.09h-17.432c-0.59,0-1.068-0.478-1.068-1.068s0.478-1.068,1.068-1.068h16.364v-5.497
		h-15.054c-0.59,0-1.068-0.478-1.068-1.068s0.478-1.068,1.068-1.068h16.122c0.59,0,1.068,0.478,1.068,1.068v7.634
		C141.979,44.612,141.5,45.09,140.91,45.09z"/>
	<path style="fill:#A81916;" d="M98.559,51.362H88.94c-0.59,0-1.068-0.478-1.068-1.068v-6.272c0-0.59,0.478-1.068,1.068-1.068h7.833
		c0.59,0,1.068,0.478,1.068,1.068s-0.478,1.068-1.068,1.068h-6.764v4.135h8.55c0.59,0,1.068,0.478,1.068,1.068
		S99.149,51.362,98.559,51.362z"/>
	<path style="fill:#A81916;" d="M133.121,51.362h-10.86c-0.59,0-1.068-0.478-1.068-1.068s0.478-1.068,1.068-1.068h9.792V45.09
		h-8.574c-0.59,0-1.068-0.478-1.068-1.068s0.478-1.068,1.068-1.068h9.643c0.59,0,1.068,0.478,1.068,1.068v6.272
		C134.189,50.884,133.711,51.362,133.121,51.362z"/>
	<path style="fill:#A81916;" d="M95.142,98.26h-13.83c-0.59,0-1.068-0.478-1.068-1.068V50.294c0-0.59,0.478-1.068,1.068-1.068
		h17.246c0.59,0,1.068,0.478,1.068,1.068s-0.478,1.068-1.068,1.068H82.381v44.761h12.761c0.59,0,1.068,0.478,1.068,1.068
		C96.21,97.782,95.732,98.26,95.142,98.26z"/>
	<path style="fill:#A81916;" d="M140.91,98.26H94.504c-0.59,0-1.068-0.478-1.068-1.068c0-0.59,0.478-1.068,1.068-1.068h45.338
		V51.362H122.26c-0.59,0-1.068-0.478-1.068-1.068s0.478-1.068,1.068-1.068h18.65c0.59,0,1.068,0.478,1.068,1.068v46.898
		C141.979,97.782,141.5,98.26,140.91,98.26z"/>
	<path style="fill:#A81916;" d="M126.608,63H95.615c-0.59,0-1.068-0.478-1.068-1.068s0.478-1.068,1.068-1.068h30.994
		c0.59,0,1.068,0.478,1.068,1.068S127.198,63,126.608,63z"/>
	<path style="fill:#A81916;stroke:#B8B8B8;stroke-width:2.5;stroke-linecap:round;stroke-linejoin:round;stroke-miterlimit:10;" d="
		M133.12,97.192"/>
	<path style="fill:#A81916;" d="M159.385,98.26H62.838c-0.59,0-1.068-0.478-1.068-1.068c0-0.59,0.478-1.068,1.068-1.068h96.547
		c0.59,0,1.068,0.478,1.068,1.068C160.453,97.782,159.975,98.26,159.385,98.26z"/>
	<path style="fill:#A81916;" d="M120.405,42.947c-3.069,0-5.566-2.497-5.566-5.565c0-3.07,2.497-5.568,5.566-5.568
		c3.068,0,5.565,2.498,5.565,5.568C125.97,40.451,123.473,42.947,120.405,42.947z M120.405,33.951c-1.891,0-3.429,1.539-3.429,3.431
		c0,1.89,1.538,3.428,3.429,3.428c1.891,0,3.428-1.538,3.428-3.428C123.833,35.49,122.295,33.951,120.405,33.951z"/>
	<path style="fill:#A81916;" d="M110.409,58.897c-7.805,0-14.156-6.35-14.156-14.157c0-7.807,6.35-14.158,14.156-14.158
		c2.798,0,5.505,0.816,7.828,2.36c0.492,0.326,0.625,0.99,0.299,1.481c-0.326,0.492-0.993,0.624-1.481,0.298
		c-1.972-1.31-4.27-2.002-6.646-2.002c-6.628,0-12.019,5.393-12.019,12.021c0,6.628,5.391,12.02,12.019,12.02
		c4.639,0,8.913-2.716,10.889-6.919c0.25-0.533,0.885-0.765,1.421-0.513c0.534,0.25,0.764,0.887,0.513,1.421
		C120.905,55.699,115.873,58.897,110.409,58.897z"/>
	<path style="fill:#A81916;" d="M122.264,51.364c-0.152,0-0.306-0.033-0.453-0.101c-0.534-0.251-0.764-0.887-0.513-1.422
		c0.752-1.6,1.133-3.316,1.133-5.101c0-1.148-0.162-2.284-0.482-3.376c-0.166-0.567,0.159-1.16,0.725-1.326
		c0.566-0.165,1.16,0.159,1.326,0.725c0.377,1.288,0.568,2.626,0.568,3.976c0,2.101-0.449,4.123-1.335,6.009
		C123.05,51.137,122.665,51.364,122.264,51.364z"/>
	<path style="fill:#A81916;" d="M126.465,98.26H95.758c-0.59,0-1.068-0.478-1.068-1.068V66.407c0-0.59,0.478-1.068,1.068-1.068
		h30.707c0.59,0,1.068,0.478,1.068,1.068v30.785C127.533,97.782,127.055,98.26,126.465,98.26z M96.827,96.123h28.57V67.475h-28.57
		V96.123z"/>
	<g>
		<path style="fill:#A81916;" d="M115.993,85.781c-0.59,0-1.068-0.478-1.068-1.068v-5.089c0-0.59,0.478-1.068,1.068-1.068
			s1.068,0.478,1.068,1.068v5.089C117.062,85.303,116.583,85.781,115.993,85.781z"/>
		<path style="fill:#A81916;" d="M106.23,85.781c-0.59,0-1.068-0.478-1.068-1.068v-5.089c0-0.59,0.478-1.068,1.068-1.068
			s1.068,0.478,1.068,1.068v5.089C107.298,85.303,106.82,85.781,106.23,85.781z"/>
	</g>
	<g>
		<path style="fill:#A81916;" d="M117.35,90.421c-0.1,0-0.2-0.038-0.276-0.114c-0.153-0.153-0.153-0.4,0-0.553l5-5
			c0.152-0.154,0.401-0.154,0.553,0c0.153,0.153,0.153,0.4,0,0.553l-5,5C117.551,90.383,117.451,90.421,117.35,90.421z"/>
		<path style="fill:#A81916;" d="M117.797,93.493c-0.1,0-0.2-0.038-0.276-0.114c-0.153-0.153-0.153-0.4,0-0.553l3.812-3.814
			c0.152-0.152,0.401-0.154,0.553,0c0.153,0.153,0.153,0.4,0,0.553l-3.812,3.814C117.997,93.455,117.897,93.493,117.797,93.493z"/>
	</g>
	<g>
		<path style="fill:#A81916;" d="M99.655,76.325c-0.1,0-0.2-0.038-0.276-0.114c-0.153-0.153-0.153-0.4,0-0.553l4.999-5
			c0.152-0.154,0.401-0.154,0.553,0c0.153,0.153,0.153,0.4,0,0.553l-4.999,5C99.855,76.287,99.755,76.325,99.655,76.325z"/>
		<path style="fill:#A81916;" d="M100.1,79.398c-0.1,0-0.2-0.038-0.276-0.114c-0.153-0.153-0.153-0.4,0-0.553l3.813-3.814
			c0.152-0.154,0.401-0.154,0.553,0c0.153,0.153,0.153,0.4,0,0.553l-3.813,3.814C100.301,79.361,100.2,79.398,100.1,79.398z"/>
	</g>
	<path style="fill:#A81916;" d="M111.112,98.26c-0.59,0-1.068-0.478-1.068-1.068V66.407c0-0.59,0.478-1.068,1.068-1.068
		s1.068,0.478,1.068,1.068v30.785C112.18,97.782,111.702,98.26,111.112,98.26z"/>
</g>
<path style="fill:#A81916;" d="M111.112,131.162c-35.217,0-63.869-28.651-63.869-63.869S75.894,3.425,111.112,3.425
	s63.868,28.651,63.868,63.868S146.329,131.162,111.112,131.162z M111.112,6.844c-33.333,0-60.45,27.117-60.45,60.449
	c0,33.333,27.117,60.45,60.45,60.45c33.332,0,60.449-27.117,60.449-60.45C171.561,33.961,144.443,6.844,111.112,6.844z"/>
</svg>
