<?xml version="1.0" encoding="iso-8859-1"?>
<!-- Generator: Adobe Illustrator 22.1.0, SVG Export Plug-In . SVG Version: 6.00 Build 0)  -->
<svg version="1.1" id="Nuestras_tiendas" xmlns="http://www.w3.org/2000/svg" xmlns:xlink="http://www.w3.org/1999/xlink" x="0px"
	 y="0px" viewBox="0 0 222.223 134.189" style="enable-background:new 0 0 222.223 134.189;" xml:space="preserve">
<g>
	
		<polyline style="fill:none;stroke:#333333;stroke-width:2.5;stroke-linecap:round;stroke-linejoin:round;stroke-miterlimit:10;" points="
		-96.147,41.678 -114.236,41.678 -114.236,32.745 -91.978,32.745 	"/>
	
		<polyline style="fill:none;stroke:#333333;stroke-width:2.5;stroke-linecap:round;stroke-linejoin:round;stroke-miterlimit:10;" points="
		-63.373,32.745 -44.509,32.745 -44.509,41.678 -64.904,41.678 	"/>
	
		<polyline style="fill:none;stroke:#333333;stroke-width:2.5;stroke-linecap:round;stroke-linejoin:round;stroke-miterlimit:10;" points="
		-94.059,49.015 -105.312,49.015 -105.312,41.678 -96.147,41.678 	"/>
	
		<polyline style="fill:none;stroke:#333333;stroke-width:2.5;stroke-linecap:round;stroke-linejoin:round;stroke-miterlimit:10;" points="
		-64.904,41.678 -53.624,41.678 -53.624,49.015 -66.329,49.015 	"/>
	
		<polyline style="fill:none;stroke:#333333;stroke-width:2.5;stroke-linecap:round;stroke-linejoin:round;stroke-miterlimit:10;" points="
		-94.059,49.015 -114.236,49.015 -114.236,103.884 -98.056,103.884 	"/>
	
		<polyline style="fill:none;stroke:#333333;stroke-width:2.5;stroke-linecap:round;stroke-linejoin:round;stroke-miterlimit:10;" points="
		-98.803,103.884 -44.509,103.884 -44.509,49.015 -66.329,49.015 	"/>
	
		<line style="fill:none;stroke:#333333;stroke-width:2.5;stroke-linecap:round;stroke-linejoin:round;stroke-miterlimit:10;" x1="-97.503" y1="62.63" x2="-61.242" y2="62.63"/>
	<path style="fill:none;stroke:#B8B8B8;stroke-width:2.5;stroke-linecap:round;stroke-linejoin:round;stroke-miterlimit:10;" d="
		M-53.624,103.884"/>
	
		<line style="fill:none;stroke:#333333;stroke-width:2.5;stroke-linecap:round;stroke-linejoin:round;stroke-miterlimit:10;" x1="-135.85" y1="103.884" x2="-22.895" y2="103.884"/>
	<path style="fill:#F5F5F5;stroke:#333333;stroke-width:2.5;stroke-linecap:round;stroke-linejoin:round;stroke-miterlimit:10;" d="
		M-63.24,33.91c0,2.903-2.357,5.261-5.261,5.261c-2.906,0-5.262-2.358-5.262-5.261c0-2.909,2.356-5.264,5.262-5.264
		C-65.596,28.646-63.24,31.001-63.24,33.91z"/>
	<path style="fill:none;stroke:#333333;stroke-width:2.5;stroke-linecap:round;stroke-linejoin:round;stroke-miterlimit:10;" d="
		M-66.324,49.017c-2.447,5.206-7.738,8.813-13.87,8.813c-8.456,0-15.312-6.856-15.312-15.313c0-8.456,6.856-15.313,15.312-15.313
		c3.131,0,6.041,0.94,8.467,2.552"/>
	<path style="fill:none;stroke:#333333;stroke-width:2.5;stroke-linecap:round;stroke-linejoin:round;stroke-miterlimit:10;" d="
		M-65.495,38.217c0.399,1.364,0.614,2.807,0.614,4.3c0,2.325-0.517,4.526-1.443,6.5"/>
	
		<rect x="-97.335" y="67.866" style="fill:none;stroke:#333333;stroke-width:2.5;stroke-linecap:round;stroke-linejoin:round;stroke-miterlimit:10;" width="35.925" height="36.017"/>
	<g>
		
			<line style="fill:none;stroke:#333333;stroke-width:2.5;stroke-linecap:round;stroke-linejoin:round;stroke-miterlimit:10;" x1="-73.662" y1="83.33" x2="-73.662" y2="89.284"/>
		
			<line style="fill:none;stroke:#333333;stroke-width:2.5;stroke-linecap:round;stroke-linejoin:round;stroke-miterlimit:10;" x1="-85.084" y1="83.33" x2="-85.084" y2="89.284"/>
	</g>
	<g>
		
			<line style="fill:none;stroke:#333333;stroke-width:0.9145;stroke-linecap:round;stroke-linejoin:round;stroke-miterlimit:10;" x1="-72.074" y1="95.504" x2="-66.224" y2="89.654"/>
		
			<line style="fill:none;stroke:#333333;stroke-width:0.9145;stroke-linecap:round;stroke-linejoin:round;stroke-miterlimit:10;" x1="-71.551" y1="99.099" x2="-67.091" y2="94.637"/>
	</g>
	<g>
		
			<line style="fill:none;stroke:#333333;stroke-width:0.9145;stroke-linecap:round;stroke-linejoin:round;stroke-miterlimit:10;" x1="-92.777" y1="79.013" x2="-86.928" y2="73.163"/>
		
			<line style="fill:none;stroke:#333333;stroke-width:0.9145;stroke-linecap:round;stroke-linejoin:round;stroke-miterlimit:10;" x1="-92.255" y1="82.609" x2="-87.794" y2="78.147"/>
	</g>
	
		<line style="fill:none;stroke:#333333;stroke-width:2.5;stroke-linecap:round;stroke-linejoin:round;stroke-miterlimit:10;" x1="-79.373" y1="67.866" x2="-79.373" y2="103.884"/>
</g>
<circle style="fill:none;stroke:#333333;stroke-width:4;stroke-linecap:round;stroke-linejoin:round;stroke-miterlimit:10;" cx="-79.373" cy="68.904" r="72.722"/>
<path style="fill:#A81916;" d="M111.112,131.162c-35.217,0-63.869-28.651-63.869-63.869S75.894,3.425,111.112,3.425
	s63.868,28.651,63.868,63.868S146.329,131.162,111.112,131.162z M111.112,6.844c-33.333,0-60.45,27.117-60.45,60.449
	c0,33.333,27.117,60.45,60.45,60.45c33.332,0,60.449-27.117,60.449-60.45C171.561,33.961,144.443,6.844,111.112,6.844z"/>
<g>
	<path style="fill:#A81916;" d="M148.358,68.798h-6.804c-0.828,0-1.5-0.671-1.5-1.5s0.672-1.5,1.5-1.5h6.804
		c0.828,0,1.5,0.671,1.5,1.5S149.187,68.798,148.358,68.798z"/>
	<g>
		<path style="fill:#A81916;" d="M111.113,112.274c-24.805,0-44.984-20.176-44.984-44.976c0-24.805,20.18-44.985,44.984-44.985
			c24.803,0,44.98,20.18,44.98,44.985C156.094,92.098,135.916,112.274,111.113,112.274z M111.113,25.313
			c-23.15,0-41.984,18.834-41.984,41.985c0,23.146,18.834,41.976,41.984,41.976c23.148,0,41.98-18.83,41.98-41.976
			C153.094,44.148,134.262,25.313,111.113,25.313z"/>
		<path style="fill:#A81916;" d="M110.771,68.798c-0.257,0-0.514-0.066-0.744-0.197c-0.468-0.267-0.756-0.764-0.756-1.303V36.9
			c0-0.829,0.672-1.5,1.5-1.5s1.5,0.671,1.5,1.5v27.772l16.016-9.447c0.712-0.419,1.631-0.185,2.054,0.53
			c0.421,0.713,0.184,1.633-0.53,2.054L111.533,68.59C111.299,68.729,111.035,68.798,110.771,68.798z"/>
		<path style="fill:#A81916;" d="M80.668,68.798h-6.804c-0.828,0-1.5-0.671-1.5-1.5s0.672-1.5,1.5-1.5h6.804
			c0.828,0,1.5,0.671,1.5,1.5S81.496,68.798,80.668,68.798z"/>
		<path style="fill:#A81916;" d="M110.771,106.359c-0.828,0-1.5-0.672-1.5-1.5v-6.804c0-0.828,0.672-1.5,1.5-1.5s1.5,0.672,1.5,1.5
			v6.804C112.271,105.687,111.6,106.359,110.771,106.359z"/>
	</g>
</g>
</svg>
