<?xml version="1.0" encoding="iso-8859-1"?>
<!-- Generator: Adobe Illustrator 22.1.0, SVG Export Plug-In . SVG Version: 6.00 Build 0)  -->
<svg version="1.1" id="Nuestras_tiendas" xmlns="http://www.w3.org/2000/svg" xmlns:xlink="http://www.w3.org/1999/xlink" x="0px"
	 y="0px" viewBox="0 0 222.223 134.189" style="enable-background:new 0 0 222.223 134.189;" xml:space="preserve">
<g>
	
		<polyline style="fill:none;stroke:#333333;stroke-width:2.5;stroke-linecap:round;stroke-linejoin:round;stroke-miterlimit:10;" points="
		-96.147,41.678 -114.236,41.678 -114.236,32.745 -91.978,32.745 	"/>
	
		<polyline style="fill:none;stroke:#333333;stroke-width:2.5;stroke-linecap:round;stroke-linejoin:round;stroke-miterlimit:10;" points="
		-63.373,32.745 -44.509,32.745 -44.509,41.678 -64.904,41.678 	"/>
	
		<polyline style="fill:none;stroke:#333333;stroke-width:2.5;stroke-linecap:round;stroke-linejoin:round;stroke-miterlimit:10;" points="
		-94.059,49.015 -105.312,49.015 -105.312,41.678 -96.147,41.678 	"/>
	
		<polyline style="fill:none;stroke:#333333;stroke-width:2.5;stroke-linecap:round;stroke-linejoin:round;stroke-miterlimit:10;" points="
		-64.904,41.678 -53.624,41.678 -53.624,49.015 -66.329,49.015 	"/>
	
		<polyline style="fill:none;stroke:#333333;stroke-width:2.5;stroke-linecap:round;stroke-linejoin:round;stroke-miterlimit:10;" points="
		-94.059,49.015 -114.236,49.015 -114.236,103.884 -98.056,103.884 	"/>
	
		<polyline style="fill:none;stroke:#333333;stroke-width:2.5;stroke-linecap:round;stroke-linejoin:round;stroke-miterlimit:10;" points="
		-98.803,103.884 -44.509,103.884 -44.509,49.015 -66.329,49.015 	"/>
	
		<line style="fill:none;stroke:#333333;stroke-width:2.5;stroke-linecap:round;stroke-linejoin:round;stroke-miterlimit:10;" x1="-97.503" y1="62.63" x2="-61.242" y2="62.63"/>
	<path style="fill:none;stroke:#B8B8B8;stroke-width:2.5;stroke-linecap:round;stroke-linejoin:round;stroke-miterlimit:10;" d="
		M-53.624,103.884"/>
	
		<line style="fill:none;stroke:#333333;stroke-width:2.5;stroke-linecap:round;stroke-linejoin:round;stroke-miterlimit:10;" x1="-135.85" y1="103.884" x2="-22.895" y2="103.884"/>
	<path style="fill:#F5F5F5;stroke:#333333;stroke-width:2.5;stroke-linecap:round;stroke-linejoin:round;stroke-miterlimit:10;" d="
		M-63.24,33.91c0,2.903-2.357,5.261-5.261,5.261c-2.906,0-5.262-2.358-5.262-5.261c0-2.909,2.356-5.264,5.262-5.264
		C-65.596,28.646-63.24,31.001-63.24,33.91z"/>
	<path style="fill:none;stroke:#333333;stroke-width:2.5;stroke-linecap:round;stroke-linejoin:round;stroke-miterlimit:10;" d="
		M-66.324,49.017c-2.447,5.206-7.738,8.813-13.87,8.813c-8.456,0-15.312-6.856-15.312-15.313c0-8.456,6.856-15.313,15.312-15.313
		c3.131,0,6.041,0.94,8.467,2.552"/>
	<path style="fill:none;stroke:#333333;stroke-width:2.5;stroke-linecap:round;stroke-linejoin:round;stroke-miterlimit:10;" d="
		M-65.495,38.217c0.399,1.364,0.614,2.807,0.614,4.3c0,2.325-0.517,4.526-1.443,6.5"/>
	
		<rect x="-97.335" y="67.866" style="fill:none;stroke:#333333;stroke-width:2.5;stroke-linecap:round;stroke-linejoin:round;stroke-miterlimit:10;" width="35.925" height="36.017"/>
	<g>
		
			<line style="fill:none;stroke:#333333;stroke-width:2.5;stroke-linecap:round;stroke-linejoin:round;stroke-miterlimit:10;" x1="-73.662" y1="83.33" x2="-73.662" y2="89.284"/>
		
			<line style="fill:none;stroke:#333333;stroke-width:2.5;stroke-linecap:round;stroke-linejoin:round;stroke-miterlimit:10;" x1="-85.084" y1="83.33" x2="-85.084" y2="89.284"/>
	</g>
	<g>
		
			<line style="fill:none;stroke:#333333;stroke-width:0.9145;stroke-linecap:round;stroke-linejoin:round;stroke-miterlimit:10;" x1="-72.074" y1="95.504" x2="-66.224" y2="89.654"/>
		
			<line style="fill:none;stroke:#333333;stroke-width:0.9145;stroke-linecap:round;stroke-linejoin:round;stroke-miterlimit:10;" x1="-71.551" y1="99.099" x2="-67.091" y2="94.637"/>
	</g>
	<g>
		
			<line style="fill:none;stroke:#333333;stroke-width:0.9145;stroke-linecap:round;stroke-linejoin:round;stroke-miterlimit:10;" x1="-92.777" y1="79.013" x2="-86.928" y2="73.163"/>
		
			<line style="fill:none;stroke:#333333;stroke-width:0.9145;stroke-linecap:round;stroke-linejoin:round;stroke-miterlimit:10;" x1="-92.255" y1="82.609" x2="-87.794" y2="78.147"/>
	</g>
	
		<line style="fill:none;stroke:#333333;stroke-width:2.5;stroke-linecap:round;stroke-linejoin:round;stroke-miterlimit:10;" x1="-79.373" y1="67.866" x2="-79.373" y2="103.884"/>
</g>
<circle style="fill:none;stroke:#333333;stroke-width:4;stroke-linecap:round;stroke-linejoin:round;stroke-miterlimit:10;" cx="-79.373" cy="68.904" r="72.722"/>
<path style="fill:#A81916;" d="M111.112,131.162c-35.217,0-63.869-28.651-63.869-63.869S75.894,3.425,111.112,3.425
	s63.868,28.651,63.868,63.868S146.329,131.162,111.112,131.162z M111.112,6.844c-33.333,0-60.45,27.117-60.45,60.449
	c0,33.333,27.117,60.45,60.45,60.45c33.332,0,60.449-27.117,60.449-60.45C171.561,33.961,144.443,6.844,111.112,6.844z"/>
<g>
	<g>
		<path style="fill:#A81916;" d="M111.112,115.252c-19.954,0-35.585-8.567-35.585-19.503c0-4.253,2.389-8.276,6.909-11.631
			c0.625-0.465,1.51-0.335,1.975,0.292c0.465,0.626,0.335,1.51-0.291,1.975c-2.632,1.953-5.769,5.164-5.769,9.364
			c0,9.042,15.003,16.68,32.761,16.68s32.761-7.638,32.761-16.68c0-4.2-3.137-7.41-5.769-9.364
			c-0.626-0.465-0.756-1.349-0.291-1.975c0.464-0.626,1.349-0.756,1.974-0.292c4.52,3.355,6.91,7.377,6.91,11.631
			C146.696,106.686,131.065,115.252,111.112,115.252z"/>
	</g>
	<g>
		<path style="fill:#A81916;" d="M110.725,66.349c-8.783,0-15.929-7.146-15.929-15.929c0-8.784,7.146-15.931,15.929-15.931
			c1.874,0,3.71,0.324,5.457,0.961c0.732,0.267,1.109,1.078,0.842,1.811c-0.268,0.732-1.077,1.109-1.811,0.842
			c-1.436-0.524-2.946-0.79-4.489-0.79c-7.227,0-13.106,5.88-13.106,13.108c0,7.227,5.879,13.106,13.106,13.106
			s13.106-5.879,13.106-13.106c0-1.487-0.244-2.94-0.728-4.32c-0.257-0.736,0.131-1.541,0.867-1.799
			c0.739-0.256,1.541,0.131,1.799,0.866c0.588,1.681,0.886,3.448,0.886,5.252C126.654,59.203,119.508,66.349,110.725,66.349z"/>
		<path style="fill:#A81916;" d="M110.726,96.044c-0.288,0-0.592-0.088-0.828-0.252c-16.323-11.32-23.913-24.023-27.406-32.686
			c-1.078-2.356-1.864-4.908-2.314-7.525c-0.299-1.752-0.449-3.517-0.449-5.274c0-17.079,13.894-30.973,30.973-30.973
			s30.973,13.894,30.973,30.973c0,1.669-0.135,3.35-0.403,5.001c0.002,0.075-0.004,0.151-0.016,0.226c0,0-0.074,0.478-0.284,1.351
			c-0.416,1.945-1.044,3.897-1.857,5.769c-3.426,8.748-11.012,21.644-27.586,33.137C111.294,95.956,111.013,96.044,110.726,96.044z
			 M110.702,22.158c-15.522,0-28.15,12.628-28.15,28.15c0,1.598,0.136,3.202,0.405,4.769c0.412,2.404,1.126,4.722,2.128,6.915
			c3.318,8.223,10.426,20.145,25.629,30.924c16.263-11.537,23.131-24.547,25.793-31.339c0.758-1.749,1.329-3.522,1.714-5.319
			c0.106-0.438,0.171-0.755,0.209-0.948c0-0.077,0.006-0.155,0.02-0.232c0.267-1.572,0.403-3.177,0.403-4.771
			C138.852,34.786,126.224,22.158,110.702,22.158z"/>
	</g>
</g>
</svg>
