<?xml version="1.0" encoding="iso-8859-1"?>
<!-- Generator: Adobe Illustrator 22.1.0, SVG Export Plug-In . SVG Version: 6.00 Build 0)  -->
<svg version="1.1" id="precio" xmlns="http://www.w3.org/2000/svg" xmlns:xlink="http://www.w3.org/1999/xlink" x="0px" y="0px"
	 viewBox="0 0 222.223 134.189" style="enable-background:new 0 0 222.223 134.189;" xml:space="preserve">
<g>
	<path style="fill:#333333;" d="M153.661,29.368c-0.781-3.925-3.793-6.931-7.717-7.717l-31.8-6.418
		c-3.275-0.65-6.682,0.4-8.903,2.753l-52.222,52.09c-3.802,3.925-3.802,10.075,0,13.999l38.218,38.219
		c1.826,1.835,4.32,2.88,6.936,2.88c2.616,0,5.1-1.045,6.936-2.88l52.222-52.218c2.353-2.357,3.398-5.76,2.739-8.903L153.661,29.368
		z M153.661,66.41l-52.091,52.086c-1.694,1.703-4.837,1.703-6.541,0l-38.35-38.214c-1.835-1.835-1.835-4.842,0-6.545l52.222-52.086
		c0.922-0.917,2.089-1.313,3.275-1.313c0.254,0,0.65,0,0.913,0.132l31.8,6.414c1.835,0.39,3.275,1.831,3.67,3.665l6.409,31.673
		C155.232,63.788,154.714,65.36,153.661,66.41z"/>
	<path style="fill:#333333;" d="M138.48,30.944c-1.835,0-3.407,0.654-4.715,1.958c-1.308,1.313-1.958,2.884-1.958,4.715
		c0,1.835,0.65,3.402,1.958,4.71c1.308,1.308,2.88,1.963,4.715,1.963c1.835,0,3.407-0.654,4.715-1.963
		c1.308-1.308,1.958-2.875,1.958-4.71c0-1.831-0.65-3.402-1.958-4.715C142.019,31.598,140.315,30.944,138.48,30.944z
		 M139.525,38.661c-0.518,0.527-1.44,0.527-1.958,0c-0.264-0.259-0.395-0.65-0.395-1.045c0-0.395,0.132-0.786,0.395-1.045
		c0.254-0.264,0.65-0.395,1.045-0.395c0.396,0,0.781,0.132,1.045,0.395c0.264,0.259,0.396,0.65,0.396,1.045
		C140.052,38.012,139.789,38.402,139.525,38.661z"/>
	<g>
		<path style="fill:#333333;" d="M110.646,62.986c-1.635-1.502-3.004-2.341-5.124-2.341c-2.386,0-3.844,1.237-3.844,3.534
			c0,5.301,12.016,4.241,12.016,13.164c0,4.197-2.474,7.289-6.847,8.084v4.55h-3.535V85.56c-2.694-0.265-5.655-1.502-7.642-3.357
			l2.297-3.446c2.077,1.635,4.153,2.739,6.538,2.739c2.871,0,4.285-1.414,4.285-3.799c0-5.831-12.015-4.992-12.015-13.297
			c0-4.108,2.562-7.024,6.538-7.73v-4.506h3.535v4.417c2.827,0.354,4.77,1.723,6.405,3.446L110.646,62.986z"/>
	</g>
</g>
</svg>
