<?xml version="1.0" encoding="iso-8859-1"?>
<!-- Generator: Adobe Illustrator 22.1.0, SVG Export Plug-In . SVG Version: 6.00 Build 0)  -->
<svg version="1.1" id="Horarios" xmlns="http://www.w3.org/2000/svg" xmlns:xlink="http://www.w3.org/1999/xlink" x="0px" y="0px"
	 viewBox="0 0 222.223 134.189" style="enable-background:new 0 0 222.223 134.189;" xml:space="preserve">
<g>
	<path style="fill:#333333;" d="M145.799,65.039h-6.804c-0.828,0-1.5-0.671-1.5-1.5s0.672-1.5,1.5-1.5h6.804
		c0.828,0,1.5,0.671,1.5,1.5S146.627,65.039,145.799,65.039z"/>
	<g>
		<path style="fill:#333333;" d="M108.554,108.515c-24.805,0-44.984-20.176-44.984-44.976c0-24.805,20.18-44.985,44.984-44.985
			c24.803,0,44.98,20.18,44.98,44.985C153.534,88.339,133.356,108.515,108.554,108.515z M108.554,21.554
			c-23.15,0-41.984,18.834-41.984,41.985c0,23.146,18.834,41.976,41.984,41.976c23.148,0,41.98-18.83,41.98-41.976
			C150.534,40.389,131.702,21.554,108.554,21.554z"/>
		<path style="fill:#333333;" d="M108.212,65.039c-0.257,0-0.514-0.066-0.744-0.197c-0.468-0.267-0.756-0.764-0.756-1.303V33.141
			c0-0.829,0.672-1.5,1.5-1.5s1.5,0.671,1.5,1.5v27.772l16.016-9.447c0.712-0.419,1.631-0.185,2.054,0.53
			c0.421,0.713,0.184,1.633-0.53,2.054l-18.277,10.782C108.739,64.97,108.476,65.039,108.212,65.039z"/>
		<path style="fill:#333333;" d="M78.108,65.039h-6.804c-0.828,0-1.5-0.671-1.5-1.5s0.672-1.5,1.5-1.5h6.804
			c0.828,0,1.5,0.671,1.5,1.5S78.937,65.039,78.108,65.039z"/>
		<path style="fill:#333333;" d="M108.212,102.6c-0.828,0-1.5-0.672-1.5-1.5v-6.804c0-0.828,0.672-1.5,1.5-1.5s1.5,0.672,1.5,1.5
			v6.804C109.712,101.928,109.04,102.6,108.212,102.6z"/>
	</g>
</g>
</svg>
